#!OML:ASF I:\Actors\actors\Patient Classification 2\Patient 1\Session 1\actor1.ASF
:FULLY-SPECIFIED
:DEGREES
717
root -0.491928 18.6238 6.18341 0.0206143 -2.58814 -0.561322
lowerback 4.36978 1.94659 -1.87055
upperback -2.87249 2.46831 -0.155062
thorax -5.50227 1.28873 0.661744
lowerneck -11.3921 -3.0596 -2.11488
upperneck 18.3957 -4.0894 1.42713
head 7.61313 -1.96694 0.412976
rclavicle -3.12092e-014 1.2921e-014
rhumerus -63.666 -18.603 -68.1501
rradius 39.5925
rwrist 12.4726
rhand -10.5097 319.321
rfingers 7.12502
rthumb 15.4928 -70.0779
lclavicle -3.12092e-014 1.2921e-014
lhumerus -58.6036 15.9586 73.4681
lradius 38.8316
lwrist -0.759486
lhand -7.94931 -21.9031
lfingers 7.12502
lthumb 17.9576 7.28785
rfemur 9.51495 12.3013 14.7993
rtibia 2.70347e-014
rfoot -21.8515 -16.8038
rtoes -10.9684
lfemur -0.395551 -5.96212 -14.7683
ltibia 21.3789
lfoot -23.3427 13.192
ltoes -55.8793
718
root -0.498851 18.6223 6.17112 -0.122321 -2.54783 -0.551229
lowerback 4.42807 1.88921 -1.77777
upperback -2.86252 2.39563 -0.176032
thorax -5.51798 1.24879 0.593174
lowerneck -11.2958 -2.99387 -2.04599
upperneck 18.3268 -4.01115 1.41827
head 7.57007 -1.92672 0.408577
rclavicle -1.58282e-014 1.39149e-014
rhumerus -63.5546 -18.3712 -68.9783
rradius 39.7694
rwrist 12.375
rhand -10.432 320.019
rfingers 7.12502
rthumb 15.5676 -69.3742
lclavicle -1.58282e-014 1.39149e-014
lhumerus -57.6832 15.3661 74.4162
lradius 39.103
lwrist -0.710944
lhand -8.21715 -22.0509
lfingers 7.12502
lthumb 17.6999 7.16352
rfemur 9.64233 12.2737 14.8396
rtibia -4.13472e-014
rfoot -21.8913 -16.7659
rtoes -10.616
lfemur -0.282164 -5.95994 -14.7554
ltibia 21.3623
lfoot -23.3093 13.1748
ltoes -55.9396
719
root -0.504905 18.621 6.15642 -0.274602 -2.49173 -0.57862
lowerback 4.53028 1.83554 -1.67762
upperback -2.83512 2.32992 -0.155748
thorax -5.54243 1.21277 0.56152
lowerneck -11.2782 -2.95387 -2.0424
upperneck 18.2966 -3.95453 1.40786
head 7.55564 -1.9007 0.410709
rclavicle -2.56681e-014 -1.98785e-016
rhumerus -63.2713 -18.2147 -69.7266
rradius 39.9543
rwrist 12.3499
rhand -10.3331 320.644
rfingers 7.12502
rthumb 15.6629 -68.7419
lclavicle -2.56681e-014 -1.98785e-016
lhumerus -56.6435 14.3412 75.9972
lradius 40.0535
lwrist -0.381154
lhand -9.0884 -19.534
lfingers 7.12502
lthumb 16.8613 9.75393
rfemur 9.78155 12.2309 14.9225
rtibia 1.59028e-014
rfoot -21.9249 -16.7369
rtoes -10.2794
lfemur -0.17002 -5.93492 -14.6943
ltibia 21.3362
lfoot -23.2345 13.1429
ltoes -56.0417
720
root -0.51099 18.6207 6.13972 -0.404275 -2.49108 -0.578156
lowerback 4.62344 1.81644 -1.65557
upperback -2.80067 2.30575 -0.128194
thorax -5.55914 1.20033 0.577636
lowerneck -11.3291 -2.92991 -2.04553
upperneck 18.2836 -3.92123 1.41514
head 7.56007 -1.88404 0.416225
rclavicle -5.82688e-015 3.97569e-015
rhumerus -62.9215 -18.0803 -70.4858
rradius 40.3167
rwrist 12.2404
rhand -10.1474 320.968
rfingers 7.12502
rthumb 15.8417 -68.4044
lclavicle -5.82688e-015 3.97569e-015
lhumerus -55.5168 13.3831 77.3499
lradius 40.7684
lwrist 0.110373
lhand -9.32443 -17.8524
lfingers 7.12502
lthumb 16.6341 11.4548
rfemur 9.86776 12.2423 14.9618
rtibia 1.59028e-014
rfoot -21.9261 -16.7407
rtoes -10.0398
lfemur -0.0771999 -5.8893 -14.6671
ltibia 21.3006
lfoot -23.1137 13.0991
ltoes -56.0678
721
root -0.517393 18.6192 6.12072 -0.549803 -2.53791 -0.568967
lowerback 4.72413 1.79039 -1.67779
upperback -2.76079 2.26991 -0.0845968
thorax -5.57668 1.18407 0.636183
lowerneck -11.2993 -2.88668 -2.0189
upperneck 18.1969 -3.86249 1.39777
head 7.52428 -1.85637 0.413018
rclavicle -3.62782e-014 -4.57205e-015
rhumerus -62.4668 -17.8133 -71.3339
rradius 40.7843
rwrist 11.9501
rhand -10.1022 321.145
rfingers 7.12502
rthumb 15.8852 -68.2232
lclavicle -3.62782e-014 -4.57205e-015
lhumerus -54.4135 12.6208 78.3765
lradius 41.238
lwrist 0.362304
lhand -9.25865 -17.8094
lfingers 7.12502
lthumb 16.6974 11.4924
rfemur 9.94666 12.303 14.9917
rtibia 3.81667e-014
rfoot -21.9104 -16.7661
rtoes -9.94769
lfemur 0.0487298 -5.854 -14.6577
ltibia 21.2547
lfoot -23.0489 13.0726
ltoes -56.0159
722
root -0.523135 18.6163 6.09974 -0.736874 -2.58414 -0.53599
lowerback 4.9147 1.75777 -1.73362
upperback -2.73407 2.22145 -0.0316725
thorax -5.66078 1.16335 0.721367
lowerneck -11.2107 -2.82365 -2.00296
upperneck 18.1191 -3.77101 1.35664
head 7.48012 -1.81632 0.407843
rclavicle -4.31114e-015 8.34896e-015
rhumerus -61.9463 -17.4178 -72.1985
rradius 41.2928
rwrist 11.5822
rhand -10.2402 321.408
rfingers 7.12502
rthumb 15.7523 -67.971
lclavicle -4.31114e-015 8.34896e-015
lhumerus -53.3434 11.969 79.2339
lradius 41.6345
lwrist 0.432322
lhand -9.1586 -18.7233
lfingers 7.12502
lthumb 16.7938 10.5704
rfemur 10.0652 12.3671 15.003
rtibia 1.59028e-015
rfoot -21.9081 -16.7867
rtoes -9.84395
lfemur 0.217676 -5.86979 -14.6895
ltibia 21.2105
lfoot -23.0398 13.0935
ltoes -55.9857
723
root -0.528939 18.6145 6.07857 -0.894537 -2.6424 -0.538873
lowerback 5.11031 1.74103 -1.75685
upperback -2.71946 2.19643 0.0227293
thorax -5.75979 1.15322 0.787384
lowerneck -11.1436 -2.76685 -2.01116
upperneck 18.0922 -3.68426 1.3168
head 7.45719 -1.77963 0.405905
rclavicle 1.54679e-014 -1.39149e-014
rhumerus -61.3865 -16.9943 -73.0724
rradius 41.9096
rwrist 11.2152
rhand -10.4141 321.428
rfingers 7.12502
rthumb 15.5848 -67.9636
lclavicle 1.54679e-014 -1.39149e-014
lhumerus -52.3032 10.9426 80.2548
lradius 42.2568
lwrist 1.05493
lhand -8.86878 -19.2471
lfingers 7.12502
lthumb 17.0727 10.0228
rfemur 10.1532 12.4399 15.0522
rtibia 1.59028e-015
rfoot -21.9091 -16.8177
rtoes -9.71059
lfemur 0.341118 -5.82303 -14.6636
ltibia 21.1782
lfoot -22.9767 13.0743
ltoes -56.013
